<?xml version="1.0" encoding="UTF-8" standalone="no"?>
<svg width="514px" height="752px" viewBox="0 0 514 752" version="1.1" xmlns="http://www.w3.org/2000/svg" xmlns:xlink="http://www.w3.org/1999/xlink">
    <!-- Generator: Sketch 42 (36781) - http://www.bohemiancoding.com/sketch -->
    <title>benay-outline</title>
    <desc>Created with Sketch.</desc>
    <defs></defs>
    <g id="Page-1" stroke="none" stroke-width="1" fill="none" fill-rule="evenodd">
        <path d="M264.757576,115.366197 L213.3126,143.140845 L191.264753,149.676056 L178.199362,152.943662 L160.23445,152.126761 L143.902711,151.309859 L128.38756,149.676056 L117.77193,149.676056 L109.606061,147.225352 L107.1563,148.042254 C107.1563,148.042254 98.6542016,143.297018 94.907496,143.140845 C91.1607904,142.984672 87.5582137,147.225352 87.5582137,147.225352 C87.5582137,147.225352 84.2152142,145.054275 79.3923445,143.957746 C74.5694748,142.861218 69.5933014,143.140845 69.5933014,143.140845 L48.3620415,137.422535 C48.3620415,137.422535 23.4897856,135.620415 21.414673,135.788732 C19.3395605,135.95705 18.1483254,139.873239 18.1483254,139.873239 L11.61563,141.507042 L7.53269537,146.408451 L7.53269537,151.309859 C7.53269537,151.309859 1,154.451055 1,156.211268 C1,157.97148 7.53269537,158.661972 7.53269537,158.661972 L18.9649123,157.84507 L27.9473684,155.394366 L34.4800638,155.394366 L26.3141946,160.295775 L14.0653907,160.295775 C14.0653907,160.295775 12.4322169,161.197372 12.4322169,162.746479 C12.4322169,164.295585 14.0653907,166.014085 14.0653907,166.014085 L19.7814992,167.647887 L34.4800638,166.014085 L41.8293461,162.746479 L51.6283892,166.830986 L63.0606061,169.28169 L74.492823,170.098592 L146.352472,194.605634 L161.867624,197.056338 L170.85008,197.873239 L195.347687,196.239437 L219.028708,192.971831 C219.028708,192.971831 235.160443,191.388048 238.626794,190.521127 C242.093145,189.654205 245.15949,186.43662 245.15949,186.43662 C245.15949,186.43662 252.374878,189.243848 250.875598,206.042254 C249.376318,222.840659 245.15949,239.535211 245.15949,239.535211 L243.526316,250.971831 L250.059011,289.366197 L250.059011,359.619718 L256.591707,386.577465 C256.591707,386.577465 235.509076,414.938505 230.460925,424.15493 C225.412774,433.371354 223.92823,446.211268 223.92823,446.211268 L236.99362,496.042254 L254.141946,577.732394 L253.325359,599.788732 L251.692185,618.577465 L243.526316,639 C243.526316,639 225.77639,659.205659 223.111643,664.323944 C220.446896,669.442228 223.111643,678.211268 223.111643,678.211268 L254.958533,681.478873 L278.639553,681.478873 L301.503987,666.774648 L298.23764,627.56338 L293.338118,604.690141 L309.669856,603.056338 L322.735247,639 L325.185008,692.915493 L324.818182,707.15493 C324.818182,707.15493 321.125271,713.9272 307.486443,717.788732 C293.847616,721.650264 283.539075,726.408451 283.539075,726.408451 C283.539075,726.408451 269.908409,726.709717 268.84051,733.760563 C267.772612,740.81141 311.30303,751 311.30303,751 L343.966507,743.661972 L379.079745,744.661972 L380.712919,712.521127 L387.245614,702.71831 C387.245614,702.71831 392.494886,673.012697 388.878788,639.816901 C385.26269,606.621106 373.363636,575.28169 373.363636,575.28169 L368.464115,543.422535 L371.730463,485.422535 L370.097289,459.28169 L384.795853,448.661972 L415.826156,445.394366 L417.45933,453.56338 L423.992026,451.112676 L427.258373,446.211268 L432.974482,446.211268 L431.341308,438.859155 L443.590112,422.521127 L428.891547,357.169014 L432.974482,344.098592 C432.974482,344.098592 436.568596,343.1444 434.607656,338.380282 C432.646715,333.616164 427.258373,330.211268 427.258373,330.211268 L423.992026,321.225352 L423.992026,290.183099 L422.358852,276.295775 L422.358852,259.957746 L421.542265,253.422535 L435.424242,262.408451 L440.323764,265.676056 L444.406699,273.028169 L450.939394,282.014085 L458.288676,294.267606 L468.087719,316.323944 L472.170654,334.295775 L471.354067,341.647887 L475.437002,346.549296 L478.703349,359.619718 L481.15311,370.239437 L478.703349,375.957746 L472.987241,384.943662 L468.087719,390.661972 L463.188198,402.915493 L459.105263,407.816901 L457.472089,413.535211 L457.472089,417.619718 L461.555024,418.43662 L467.271132,412.71831 L470.53748,407 L477.886762,402.098592 L484.419458,402.915493 L489.318979,410.267606 L490.135566,414.352113 L488.502392,419.253521 L488.502392,422.521127 L490.135566,426.605634 L488.502392,429.873239 L487.685805,438.859155 L490.135566,443.760563 L496.668262,435.591549 L503.200957,435.591549 L505.650718,430.690141 L509.733652,424.971831 L513,420.887324 L513,415.169014 L513,404.549296 L512.183413,393.929577 L510.550239,382.492958 L508.100478,374.323944 L504.834131,369.422535 L500.751196,364.521127 L504.017544,347.366197 L504.834131,325.309859 L501.567783,306.521127 C501.567783,306.521127 502.337373,299.032381 501.567783,293.450704 C500.798193,287.869028 498.301435,282.830986 498.301435,282.830986 L488.502392,265.676056 L482.786284,253.422535 C482.786284,253.422535 483.45882,247.127801 482.786284,244.43662 C482.113748,241.745439 479.519936,240.352113 479.519936,240.352113 L450.939394,200.323944 L441.956938,187.253521 L432.974482,179.084507 L428.891547,167.647887 L423.175439,153.760563 L414.192982,143.140845 L417.45933,134.15493 L419.092504,117.816901 L416.642743,105.56338 L411.743222,99.028169 L406.8437,85.9577465 L400.311005,77.7887324 L392.961722,73.7042254 L392.961722,65.5352113 L390.511962,59 L380.712919,50.0140845 L375.813397,43.4788732 L370.913876,32.8591549 L366.014354,20.6056338 L351.315789,9.98591549 L343.14992,3.45070423 L328.451356,1 L308.85327,3.45070423 L299.054226,6.71830986 L287.62201,14.8873239 L277.00638,27.9577465 L270.473684,38.5774648 L267.207337,48.3802817 L259.858054,59 L263.940989,67.1690141 L273.740032,72.8873239 L280.272727,81.056338 L273.740032,90.0422535 L265.574163,103.112676 L264.757576,115.366197 Z" id="Path" stroke="#292929" fill="#292929"></path>
    </g>
</svg>